<?xml version="1.0" encoding="UTF-8"?>
<svg id="Calque_1" xmlns="http://www.w3.org/2000/svg" version="1.1" viewBox="0 0 179.1 57.5" width="179.1" height="57.5">
  <!-- Generator: Adobe Illustrator 29.0.1, SVG Export Plug-In . SVG Version: 2.1.0 Build 192)  -->
  <defs>
    <style>
      .st0 {
        fill: #1b9443;
      }

      .st1 {
        fill: #e8e03e;
      }

      .st2 {
        fill: #1f211f;
      }
    </style>
  </defs>
  <g id="Calque_2">
    <g id="Calque_1-2">
      <g id="Martin_s">
        <rect class="st1" x="0" y="37.1" width="169.8" height="20.4"/>
        <path class="st2" d="M22.5,14.7c-2.5,2-4.9,3.8-7.3,5.7-.3.3-.7.4-1,.1,0,0,0,0-.1-.1-4.5-3.6-9.1-7.3-13.6-10.9-.4-.2-.6-.6-.6-1.1V1.1l1.3,1c4.3,3.2,8.6,6.4,12.9,9.6.3.3.7.3,1,0,0,0,0,0,0,0,4.3-3.3,8.7-6.6,13.1-9.9.2-.2.5-.4.9-.5v29h.2l10.2-19.1c1.2,2.3,2.3,4.4,3.5,6.6.1.2.1.4,0,.6-2.2,4.4-4.4,8.8-6.6,13.1-.1.3-.4.4-.7.4h-12.5c-.6,0-.5-.3-.5-.7V14.7Z"/>
        <path class="st2" d="M60.4,30.4V2c0-.7.2-.9.9-.9,1.7,0,3.4,0,5.2,0s.6.1.6.6v29.5c0,.5-.1.6-.6.6h-12.5c-.3,0-.6-.2-.7-.5-.7-1.4-1.4-2.8-2-4.3-.1-.4-.5-.6-.9-.6h-7.9c0-.3.1-.5.2-.8.8-1.7,1.6-3.3,2.3-5,.1-.4.5-.6.9-.5h1.7c0-.4-.1-.6-.2-.8-1.9-3.9-3.8-7.8-5.7-11.7-.2-.4-.2-.8,0-1.2,1.2-1.7,2.2-3.4,3.4-5.3l15.2,29.3h.2Z"/>
        <path class="st2" d="M143.3,31.7l-3.3-2.8-22.2-18.9c-.3-.3-.5-.7-.5-1.1V1.1l19.4,16.6V1.9c0-.7.2-.9.9-.8h5.2c.4,0,.6,0,.6.5v29.8c0,.1,0,.2,0,.3Z"/>
        <path class="st0" d="M85,38.5H1.1c-.3,0-.8.3-1-.4-.2-.8,0-1,.8-1h168c.5,0,1-.1,1,.7s-.5.7-1,.7h-83.9Z"/>
        <path class="st0" d="M84.9,56.1h84c.4,0,.9-.3.9.5s-.1.9-.9.9H.9c-.7,0-.9-.2-.8-.9,0-.4.2-.6.6-.5h84.3Z"/>
        <path class="st2" d="M153.4,22.3h2.6c.5,0,.7.1.8.6.4,1.8,2.2,2.9,3.9,2.5.3,0,.6-.2.8-.3,1-.5,1.6-1.5,1.6-2.6.2-1.3-.5-2.5-1.7-3.1-.9-.4-.8-.7-.4-1.4.8-1.5,1.6-3,2.4-4.6.2-.5.5-.5.9-.3,3.1,1.6,5.2,4.7,5.4,8.3.5,5.5-3.5,10.3-8.9,10.9-5.4.5-10.2-3.3-10.8-8.7-.1-1.3-.1-1.3,1.2-1.3h2.1Z"/>
        <path class="st2" d="M113.9,16.5v14.5c0,.6-.1.8-.8.8h-4.9c-.6,0-.8-.1-.8-.8V1.9c0-.6.2-.8.8-.8h4.9c.6,0,.8.1.8.8,0,4.9,0,9.8,0,14.7Z"/>
        <path class="st2" d="M165.1,9.7h-2.6c-.5,0-.6-.1-.7-.6-.1-1.2-1.2-2.1-2.5-2-.2,0-.4,0-.6.2-.9.3-1.4,1.1-1.4,2,0,.8.4,1.6,1.1,2,.4.2.7.3,1.1.4,1.1.2,1.1.1.6,1.1-.8,1.6-1.7,3.1-2.4,4.7-.3.5-.6.6-1.1.5-3.6-1.3-6.1-4.7-6.1-8.6.1-5.1,4.4-9.2,9.6-9.1.2,0,.3,0,.5,0,3.8.5,6.9,3.3,7.7,7,.1.5.2,1,.3,1.6s0,.8-.7.8c-.9,0-1.8,0-2.7,0h0Z"/>
        <path class="st2" d="M70.5,16.5v-2.8c0-.5,0-.7.6-.6h3.3c1.3,0,2.4-1,2.5-2.4,0,0,0-.2,0-.2.1-1.3-.8-2.4-2.1-2.5,0,0-.2,0-.3,0h-3.3c-.4,0-.6,0-.6-.5V1.6c0-.2,0-.5.3-.5,2.3,0,4.6-.2,6.8.6,3.9,1.3,6.3,5.2,5.8,9.3-.5,6-5.8,8.9-10,8.9h-2.3c-.4,0-.6-.1-.6-.6,0-.9,0-1.8,0-2.8Z"/>
        <path class="st2" d="M95.4,7.9h-9.3c-.5,0-.8,0-.7-.7V1.8c0-.5,0-.7.7-.7h18.7c.4,0,.6,0,.6.6v5.7c0,.5-.2.6-.6.6-3.1,0-6.2,0-9.4,0Z"/>
        <path class="st2" d="M92,21.5v-9.4c0-.6.1-.9.8-.8,1.7,0,3.4,0,5.1,0s.6.1.6.6v19.2c0,.5-.2.6-.7.6h-5.2c-.5,0-.7-.1-.7-.7,0-3.2,0-6.4,0-9.6Z"/>
        <path class="st2" d="M0,13.4c1.8,1.4,3.4,2.8,5.2,4,1.1.7,1.7,1.9,1.5,3.2,0,3.5,0,6.9,0,10.4s-.2.8-.8.8H.7c-.4,0-.6,0-.6-.5,0-5.9,0-11.8,0-17.9Z"/>
        <path class="st2" d="M117.4,13.8l6.1,5.5c.2.2.3.4.2.7v11.3c0,.4,0,.6-.6.6h-5.2c-.4,0-.6,0-.6-.5V13.9s0,0,.1-.2Z"/>
        <path class="st2" d="M79.7,31.8h-2.9c-.3,0-.7-.1-.7-.5,0,0,0,0,0,0-1-2.8-2-5.6-3.1-8.5-.2-.4-.1-.5.3-.5,1.9,0,3.7-.4,5.3-1.4.4-.3.4.2.5.4,1,2.5,2,5,2.9,7.5.3.8.6,1.6.9,2.4.2.4.2.6-.4.6-1,0-1.9,0-2.9,0Z"/>
        <path class="st0" d="M24.6,52.2l-2-1.5c-1.8-1.4-3.5-2.8-5.2-4.1-.4-.3-.7-.8-.6-1.3v-1.9c1.6,1.2,3,2.4,4.5,3.5.5.3,1,1.1,1.4.9s.1-1.1.2-1.7,0-1.5,0-2.2.1-.6.5-.5h.2c1.2,0,1.1-.2,1.1,1,0,2.6,0,5.1,0,7.8Z"/>
        <path class="st0" d="M76.7,52.2l-5-4c-.3-.3-.7-.6-1.1-.9-1.6-.8-1.9-2.2-1.5-3.9l5.7,4.5c.3-.1.2-.4.2-.5v-3.3c0-.5.2-.6.7-.6,1.4,0,1.1-.1,1.2,1.1,0,2.4,0,5,0,7.7Z"/>
        <path class="st0" d="M137,52.2l-2-1.6c-1.7-1.3-3.4-2.7-5.1-4-.4-.3-.7-.8-.6-1.3,0-.6,0-1.2,0-1.9l6,4.7v-3.6c0-.3-.2-.8.1-1,.5,0,1,0,1.4,0,.3,0,.2.3.2.5v8.2Z"/>
        <path class="st0" d="M116.1,47.9c.4,0,.8,0,1.1.7.5,1,1.5,1.6,2.6,1.5,1.1,0,2-.7,2.5-1.6.5-.5,1.3-.7,2-.5.2.2,0,.4,0,.6-.6,2.6-3.2,4.2-5.8,3.6-1.6-.4-2.8-1.5-3.4-3-.4-1.2-.3-1.3,1-1.3Z"/>
        <path class="st0" d="M119.6,42.8c2.2,0,4.2,1.4,4.7,3.6.1.5,0,.8-.6.8s-1.2,0-1.7-.8c-.8-1.3-2.5-1.8-3.8-1-.5.3-.9.8-1.2,1.3,0,.2,0,.5-.4.5-.6,0-1.1,0-1.7,0-.2,0,0-.3,0-.5.4-2.3,2.5-3.9,4.8-3.8Z"/>
        <path class="st0" d="M91.6,52.3c-.3,0-.6,0-.9,0-.8.3-1.6-.1-1.9-.9,0,0,0-.2,0-.3,0-.4-.4-.6-.8-.5,0,0,0,0,0,0-.2,0-.4,0-.5,0-.4,0-.9.2-1.2-.1-.2-.1.6-1.5,1-1.6s.2-.4,0-.5c-.4-.8-.8-1.6-1.3-2.3-.4-.4-.4-1,0-1.4.3-.4.5-.7.7-1.1l4.9,8.9Z"/>
        <path class="st0" d="M151.6,52.3c-.2,0-.5,0-.8,0-.8.3-1.6-.1-1.9-.9,0,0,0-.2,0-.3,0-.4-.4-.6-.8-.5,0,0,0,0,0,0-.2,0-.3,0-.5,0-.4,0-1.2.2-1.2-.2,0-.7.3-1.3.9-1.6.4-.1.2-.4,0-.5-.4-.8-.8-1.6-1.3-2.4-.3-.4-.3-.9,0-1.3.3-.3.5-.7.7-1.1.5.5,4.6,8,4.8,8.8Z"/>
        <path class="st0" d="M156.7,47.9v-3.8c0-.5.2-.7.7-.7.2,0,.4,0,.5,0,.6,0,.7.2.7.7v7.5c0,.5-.2.7-.7.7-.2,0-.4,0-.6,0-.5,0-.6-.2-.6-.6,0-1.3,0-2.5,0-3.8Z"/>
        <path class="st0" d="M8.7,47.9v-3.8c0-.5.1-.7.6-.7,1.5,0,1.3-.2,1.3,1.2v6.8c0,.6-.1.8-.8.8-1.3,0-1.1.2-1.1-1.1s0-2.2,0-3.3Z"/>
        <path class="st0" d="M45.7,47.9v3.8c0,.5,0,.7-.6.6-.1,0-.3,0-.4,0-.7.1-.9-.1-.8-.8,0-2.5,0-4.9,0-7.4,0-.9.5-.7,1-.7s.9,0,.9.7c0,1.2,0,2.5,0,3.7Z"/>
        <path class="st0" d="M106.7,47.9v-3.8c0-.5.2-.7.7-.6.2,0,.4,0,.6,0,.5,0,.6.2.6.6v7.6c0,.5-.2.7-.7.7-.1,0-.3,0-.4,0-.6.1-.7-.2-.7-.7,0-1.2,0-2.5,0-3.7Z"/>
        <path class="st0" d="M58.2,47.9v3.8c0,.5,0,.7-.6.7-.3,0-.5,0-.8,0-.3,0-.5,0-.5-.4v-8c0-.4.2-.5.5-.5,1.3,0,1.3,0,1.3,1.2v3.2Z"/>
        <path class="st0" d="M60,43.4c1.3-.1,2.4.8,2.6,2.1,0,0,0,0,0,.1.2,1.7-.4,2.7-1.9,3.1h-.3c-1.3.4-1.7,0-1.4-1.3,0-.2.1-.3.3-.3h.5c.5,0,.9-.2.9-.8s-.4-.8-.9-.9c-.3,0-.8.2-.8-.2-.1-.5-.1-1.1,0-1.7,0-.3.6,0,1-.1Z"/>
        <path class="st2" d="M152,0l-2.7,3.6c-.1.1-.3.2-.5.2h-2.4l1.4-3.6C147.9,0,148.1,0,148.3,0h3.7Z"/>
        <path class="st0" d="M34.3,45.3h-2.4c-.4,0-.6,0-.6-.6,0-1.6-.2-1.3,1.3-1.3h4c.6,0,.8.2.8.8,0,.1,0,.3,0,.4,0,.6-.1.8-.8.8s-1.5,0-2.3,0Z"/>
        <path class="st0" d="M96.9,49.3v-2.4c0-.4.1-.6.6-.6,1.6,0,1.3-.2,1.3,1.2s0,2.7,0,4.1-.2.8-.7.7c-.2,0-.4,0-.6,0-.5,0-.6-.2-.6-.6,0-.8,0-1.6,0-2.4Z"/>
        <path class="st0" d="M33.4,49.2v-2.4c0-.5,0-.6.6-.6q1.3,0,1.3,1.2v4.2c0,.5,0,.7-.6.7q-1.2,0-1.2-1.2v-1.9Z"/>
        <path class="st0" d="M97.8,45.3h-2.4c-.4,0-.6,0-.6-.6,0-1.6-.2-1.3,1.3-1.3s2.7,0,4,0,.7.2.7.7q0,1.2-1.2,1.2h-1.8Z"/>
        <path class="st0" d="M142.2,52.3l2.9-5.7h.1c.9.9,1.1,2.3.3,3.2-.4.6-.7,1.2-.9,1.8-.1.4-.6.7-1,.6-.5,0-.9,0-1.4,0Z"/>
        <path class="st0" d="M82,52.3l2.9-5.8c.3.5.6,1,.9,1.4.2.2.2.5,0,.7-.5,1.1-1,2.1-1.6,3.2-.1.3-.3.5-.6.4-.5,0-1,0-1.7,0Z"/>
        <path class="st0" d="M16.8,47.2c.6.5,1.1.9,1.6,1.3.2.2.3.4.2.7v2.5c0,.5-.1.6-.6.6-1.5,0-1.2.2-1.2-1.2s0-2.5,0-3.9Z"/>
        <path class="st0" d="M68.9,47.2c.6.5,1,.9,1.5,1.2.2.2.3.5.3.7v2.5c0,.5-.2.7-.6.6h0q-1.1,0-1.1-1.1v-4Z"/>
        <path class="st0" d="M129.2,47.3c.6.5,1.1.9,1.6,1.3.2.2.2.4.2.6v2.6c0,.4-.1.6-.6.6-.3,0-.5,0-.8,0-.4,0-.5-.2-.5-.5,0-1.4,0-2.9,0-4.5Z"/>
        <path class="st0" d="M161.3,50.5h.8q1,0,1,1c0,.7-.1,1-.9.9-.7,0-1.5,0-2.2,0-.4,0-.6,0-.6-.6,0-1.5-.2-1.2,1.2-1.3h.6Z"/>
        <path class="st0" d="M48.4,43.4h.8c1.2,0,1-.1,1,1s-.2.9-.8.8c-.8,0-1.5,0-2.3,0-.4,0-.5-.1-.5-.5,0-1.3,0-1.3,1.2-1.3h.6Z"/>
        <path class="st0" d="M48.3,52.3c-.3,0-.6,0-.9,0-.7.1-.8-.2-.9-.9s.2-1.1,1-1c.7,0,1.4,0,2.1,0,.4,0,.5,0,.5.5,0,1.3,0,1.3-1.3,1.3h-.6Z"/>
        <path class="st0" d="M63.3,52.3c-2.2.2-2.2.1-2.9-1.8-.2-.6-.1-.9.5-1,.2,0,.5-.1.7-.2.3-.1.4,0,.5.2l1.2,2.8Z"/>
        <path class="st0" d="M48.4,48.5c-.3,0-.6,0-.8,0-.7.1-1-.1-1-.9s.2-1,.9-.9,1.5,0,2.2,0,.5,0,.5.5c0,1.3,0,1.3-1.2,1.3h-.6Z"/>
      </g>
    </g>
  </g>
</svg>