<svg xmlns="http://www.w3.org/2000/svg" viewBox="0 0 284.82 62.81" width="284.82" height="62.81"><defs><style>.cls-1{fill:#be1826;}</style></defs><g id="Calque_2" data-name="Calque 2"><g id="Calque_1-2" data-name="Calque 1"><path class="cls-1" d="M73.88,34.9a74.14,74.14,0,0,0,.09,9c.23,1.84.91,4.19,2.23,5.24,4.86,3.85,3.55,10.42-3.56,11.56A142.33,142.33,0,0,1,54,61.93a25.07,25.07,0,0,1-7.6-1.23c-5.26-1.55-6.12-5.2-3-9.68a13.78,13.78,0,0,0,2.31-7.14,165.81,165.81,0,0,0-.61-19.56c-.35-3.53-2.93-5.1-6.09-5a4.21,4.21,0,0,0-4.33,3.08A10.87,10.87,0,0,0,34,25.51c0,6-.16,12.11.19,18.14a15.82,15.82,0,0,0,2.35,6.65c2.71,4.6,1,9.36-4.67,10.29a113.44,113.44,0,0,1-18.34,1.23A21.37,21.37,0,0,1,4.94,59.7C.05,57.45-.2,52.93,3.88,49.39a5.63,5.63,0,0,0,2-3.44c.33-8,.43-16.08.57-24.13,0-2-1.23-3.11-2.82-4.05C-1,15-1.28,10.73,3.31,8a61,61,0,0,1,25-8c3.93-.39,5.13,1.08,5.43,5a25.16,25.16,0,0,0,1.2,4.56,38.5,38.5,0,0,0,3-3c2.34-2.89,5.25-5.15,8.92-5.45a40,40,0,0,1,12.08.4c9.52,2.16,14.67,8.85,15,18.6.15,4.89,0,9.78,0,14.67Z"/><path class="cls-1" d="M119.18,62.81C99.53,62.81,86,52.49,83.43,38.17,81.34,26.57,85.08,16.81,94.2,9.35,105.68,0,118.87-1.94,132.49,3c21.3,7.71,22.37,31.84,13,44.86C138,58.13,127.71,62.71,119.18,62.81Zm5.4-23.05c-.23-2.58-.32-4.91-.65-7.2-.73-5-2-9.94-4.75-14.28-1.19-1.86-2.8-3.44-5.32-2.94s-3.61,2.55-3.62,4.76c0,4.78-.15,9.64.69,14.31.69,3.82,2.54,7.48,4.2,11.06.94,2,2.74,3.47,5.26,2.93s3.41-2.46,3.79-4.71C124.41,42.31,124.47,40.9,124.58,39.76Z"/><path class="cls-1" d="M252,26.56c.45-4.73.66-9.17-.93-13.46a3.58,3.58,0,0,0-5.3-2A25.53,25.53,0,0,0,241,15c-1.32,1.25-2.38,2.79-3.75,4a14.66,14.66,0,0,1-3.93,2.55c-3.54,1.5-7,.68-9.05-1.93a8.06,8.06,0,0,1,0-9.33C226.82,6.4,230.76,4.34,235,3a49.44,49.44,0,0,1,30.2-.43c8.44,2.56,12.91,8.55,13.07,17.33.11,6.55-.09,13.11-.15,19.66,0,3.15.31,5.87,4.27,6.77,2.28.52,2.88,2.72,2.16,5.36-2.41,8.88-18.86,14.27-26.09,8.54a9.19,9.19,0,0,1-.73-.67c-4.15-3.88-2.69-4.1-8.11-.62-6.74,4.33-17.61,4.28-24.14-.31a16.65,16.65,0,0,1-.9-26.77c6.73-5.55,14.57-6.88,23-5.89C248.94,26.1,250.31,26.33,252,26.56ZM252,40.42l-.16,0a7.33,7.33,0,0,0,0-1.24c-.23-1.42.82-3.44-1.42-4a5.19,5.19,0,0,0-5.78,1.95c-1.73,2.34-2,7.45-.21,9.67a5.31,5.31,0,0,0,3.94,1.8c1.08-.11,2.44-1.61,2.89-2.79C251.91,44.15,251.82,42.23,252,40.42Z"/><path class="cls-1" d="M190.6,9.63a9.21,9.21,0,0,0,1.21-1.38C195.6,1.69,199,0,206.27,1.11a14,14,0,0,1,11.55,10.35c1.56,6.18-.63,12.89-5.33,16.32a13.33,13.33,0,0,1-15,.43c-1.71-1.13-2.85-3.11-4.27-4.68-.57-.64-1.21-1.22-1.82-1.82-.5.7-1.4,1.4-1.41,2.11-.11,6.7-.22,13.4.06,20.09.06,1.32,1.76,2.58,2.76,3.83a3.16,3.16,0,0,0,1.08.61c2.84,1.36,5.37,3,4.85,6.69s-3.34,5.06-6.47,5.69a70.22,70.22,0,0,1-29-.07,15.17,15.17,0,0,1-5.2-2.3c-3.74-2.6-4.2-7.25-.55-9.88s4.66-6,4.7-10.06c.05-5.31.17-10.61.3-15.92a4.07,4.07,0,0,0-2.44-4.23c-.37-.17-.71-.42-1.07-.63-4.49-2.59-4.9-6.64-.46-9.31A48.91,48.91,0,0,1,170.81,3c4.44-1.19,9.17-1.44,13.79-1.78,3.26-.24,4,.67,4.51,4,.2,1.43.43,2.86.64,4.29Z"/></g></g></svg>