<svg xmlns="http://www.w3.org/2000/svg" width="252" height="252" viewBox="0 0 251.98 251.98"><defs><style>.cls-1{fill:#231f20;}.cls-2{fill:#322e2f;}.cls-3{fill:#242021;}.cls-4{fill:#393536;}.cls-5{fill:#353233;}</style></defs><g id="Calque_2" data-name="Calque 2"><g id="Calque_1-2" data-name="Calque 1"><path class="cls-1" d="M252,125.85A126,126,0,1,1,126.1,0,126,126,0,0,1,252,125.85ZM122.36,5.17c-36.83,1.17-69.73,17.36-93.95,50-16.54,22.29-23.85,47.67-23,75.37.07,2.34-.85,5.53,1.7,6.85,5.59,2.9,9.66,7.62,14.61,11.24,7.65,5.6,15,5.33,22.31-.81,1.91-1.6,3.64-3.42,5.54-5,7.84-6.67,16.37-7,24.56-.77,2.92,2.2,5.59,4.75,8.56,6.88,7.7,5.51,15,5.39,22.55-.2,1.61-1.19,3.1-2.52,4.64-3.8,11.5-9.52,18.83-9.34,29.76.76,11.24,10.39,21.21,10.38,32.48,0,3.19-2.94,6.41-5.73,10.84-6.83,8.39-2.08,14.36,2,20.14,7.21,11.38,10.22,18.61,10.24,30.14.38,2.91-2.48,5.61-5.46,9.31-6.59,3.2-1,3.76-2.85,4-5.76C251.11,66.44,197.87,5.75,122.36,5.17ZM115.44,218h-.3c-.64-9.78-1.25-19.55-1.93-29.32-.25-3.56-1.67-6.54-5.26-7.71a7.54,7.54,0,0,0-8.87,2.77c-3.46,4.44-7,8.83-10.37,13.34-4.58,6.09-9.23,12.15-13.5,18.46-2.44,3.62-1.35,6.74,2.16,8.16,3.75,1.5,6.25-.51,7.82-3.44,1.69-3.18,3.72-3.64,6.74-2.2a21.39,21.39,0,0,0,4.27,1.33c4.75,1.11,9.07,2.16,8.27,8.9-.35,3,2.23,5,5.65,5,3.65,0,5-2.25,5.26-5.34C115.62,224.65,115.44,221.32,115.44,218ZM57.29,203.43A14.6,14.6,0,0,0,70.78,182.8c-1.43-3.17-3.3-6.14-4.94-9.21-.81-1.5-1.58-3,.19-4.44s3.42-.68,5,.48c1.91,1.45,2.93,3.55,4.17,5.53,1.71,2.74,4.06,4.81,7.42,3,3.54-1.91,4-5.11,2.24-8.56a23.91,23.91,0,0,0-13.38-12c-5.65-2-11.66-.1-15.74,4.57s-4,9.55-1.23,14.73c1.57,2.91,3.14,5.84,4.73,8.75,1.08,2,1.12,3.82-.74,5.36s-3.71.65-5.4-.57c-2.94-2.13-4.38-5.34-6.08-8.38-1.55-2.79-3.74-4.26-7-3s-4,3.74-3.49,6.89C38,194.26,49,203.45,57.29,203.43Zm123.54-25.35,8.1-7.06c2.47-2.17,3.24-4.67,1.07-7.42s-5-3-7.8-.79q-6.37,5.19-12.58,10.59c-2.79,2.44-3.33,5.28-.8,8.29q11.85,14.1,23.75,28.19c2.53,3,5.51,3,8.35.78,4.42-3.5,8.69-7.22,12.9-11,2.39-2.14,3.16-4.7.81-7.43s-5.12-2.72-7.86-.48-5.56,4.63-8.52,7.1l-5.51-6.34c1.53-1.25,2.94-2.36,4.29-3.53s2.75-2.42,4.05-3.69a4.54,4.54,0,0,0,.42-6.69c-1.87-2.35-4.22-3.2-7-1.36-1.1.74-2.11,1.62-3.13,2.46-5.53,4.56-5.52,4.56-10.18-.84A7.14,7.14,0,0,1,180.83,178.08Zm-51,13.33c2.37,11.66,4.84,24.34,7.58,37,.69,3.14,3.2,4.56,6.51,3.85s4.78-2.9,4.45-6.13c-.23-2.3-.9-4.55-1.35-6.82-1.41-7-1.4-7,5.5-8.59a21,21,0,0,0,3.36-.86c2.59-1,4-2.89,3.47-5.82a4.91,4.91,0,0,0-5.64-4.43A31.09,31.09,0,0,0,147,201c-2.64.8-3.53,0-4.27-2.7-1.06-3.93.13-5.28,3.91-5.45a28.58,28.58,0,0,0,5.34-1.08c3.41-.83,5.94-2.48,5-6.55-.81-3.69-3.54-4.55-6.85-4-5.22,1-10.42,2-15.59,3.11C131.46,185,129.61,187,129.85,191.41Z"/><path class="cls-2" d="M230.29,249.28a11.25,11.25,0,0,1-11.38-11.43,11.51,11.51,0,0,1,11.32-11.6A11.65,11.65,0,0,1,241.91,238,11.44,11.44,0,0,1,230.29,249.28Zm.06-21a9.58,9.58,0,0,0-9.41,9.56,9.47,9.47,0,0,0,18.93-.08A9.67,9.67,0,0,0,230.35,228.31Z"/><path class="cls-1" d="M90.82,23.1c4.25-3,8.85-3.53,13.77-2.57a45.26,45.26,0,0,1,13.06,4.84,63.55,63.55,0,0,0,23.62,7.39c19,2.24,34.65,11.1,47.52,25.06a124,124,0,0,1,18,25.67A34.32,34.32,0,0,1,208.89,88c1.86,5.25,3.81,10.64-1.06,15.34-3.47,3.34-10.37,3.23-16.44-.38-8.84-5.25-15.72-12.83-22.49-20.38-9.92-11-21-20.34-35-25.88-28-11.1-61.12-1.3-76,22.68a37.15,37.15,0,0,0-5.34,12.82c-.85,4.55.64,7.82,4.85,9.81a11.35,11.35,0,0,0,1.81.83c11,2.89,15.9,10.12,15.12,21.37-1.38.21-2.22-1-3-1.9-4.33-4.72-9.58-6.44-16-6.67-4.86-.17-8.83-.07-13.68,2-14.28,6.25-14.53,5.68-25.45,16.53-.68-2.75.08-5,.63-7.28,2.54-10.21,7.93-18.33,17.73-22.78,5.26-2.39,8.13-6.12,10-11.58,8.78-26,26.59-44,51-55.93,1.83-.9,4.94-.93,5-3.36s-2.26-4.23-4.4-5.69C94.3,26.36,91.91,25.66,90.82,23.1Z"/><path class="cls-3" d="M116.33,91.85a17.58,17.58,0,0,0,15.4,4.26c1.92-.33,2.64-.87,1.62-2.92-4.82-9.65-10.59-18.51-20.16-24.17a27.5,27.5,0,0,0-21.14-3.26,12.1,12.1,0,0,1-2,.33,2.86,2.86,0,0,1-.9-.26c7.65-5.38,20.09-5.59,28.23-.46,6,3.8,10.63,9,14.8,14.7a89.46,89.46,0,0,1,5.47,7.74C146.2,102.42,159.05,111.2,175,116a10,10,0,0,1,1.82.77c.23.13.36.48.73,1-6.21.72-12-.72-17.41-2.87a27.63,27.63,0,0,0-12-1.94A32.19,32.19,0,0,1,116.33,91.85Z"/><path class="cls-3" d="M214.54,129.88c-.46,1.87.67,4.75-2.26,5.77s-5.19-.24-7.21-2.23a24.76,24.76,0,0,1-4.91-6.87c-3.28-6.73-8.49-11.33-15.08-14.63A90,90,0,0,1,177,107c-.77-.5-1.85-1.11-1-2.32s1.71-.34,2.51.18c2.51,1.62,4.94,3.39,7.54,4.84,7,3.92,14.33,6.32,22.38,3.38,1.67-.6,2.33-.18,2.82,1.49C212.71,119.52,214.48,124.37,214.54,129.88Z"/><path class="cls-4" d="M174.63,101.83a1.88,1.88,0,0,1-2.19,1.44c-1.15,0-1.78-.64-1.58-1.84a1.67,1.67,0,0,1,2-1.53C174,100,174.47,100.82,174.63,101.83Z"/><path class="cls-3" d="M94,207.59l9.94-14.11v17.08Z"/><path class="cls-5" d="M235.51,244.07c-3,.18-3.12-1.66-3.95-2.76s-1.44-2.44-3-2.17c-2,.36-1,2.12-1.21,3.26-.15.64-.06,1.34-1.6,1.89a21.5,21.5,0,0,1-.18-11.3c.68-2.5,4.37-1.13,6.67-.87,1.74.19,3.63,2.19,2.51,3.41C231.87,238.65,233.53,241.08,235.51,244.07Zm-5.84-10.66c-1.32,0-2.35.25-2.45,1.81-.13,2,1.26,1.93,2.59,1.93s2.87-.16,2.77-1.89S230.86,233.6,229.67,233.41Z"/></g></g></svg>