<svg xmlns="http://www.w3.org/2000/svg" viewBox="0 0 286.42 91.01" width="286.42" height="91.01"><defs><style>.cls-1{fill:#be1826;}.cls-2{fill:#fff;}</style></defs><g id="Calque_2" data-name="Calque 2"><g id="Calque_1-2" data-name="Calque 1"><path class="cls-1" d="M76.68,29.65H98V91H76.68Z"/><path class="cls-1" d="M217.64,91h68.78l-14-21.34H239C239,46.37,239,23.27,239,0H217.62c0,23.46,0,46.55.08,69.62h-.06Z"/><path class="cls-1" d="M182.16,0,139.37,91h24.15l4-8.82H188V91l21.33,0s0-60.7,0-91Zm-4.89,60.81L188,37.36V60.83Z"/><path class="cls-1" d="M173.91,0H73.31v21h36.26V91h21.34V21.06h33Z"/><path class="cls-1" d="M34.39,91C24.25,63.13,0,0,0,0H20S32.8,29.55,43.67,56.16c0-18.49.11-36.34.11-56.14H65.11V91Z"/><path class="cls-2" d="M78.66,10.29a8.44,8.44,0,0,1,16.88-.13,8.48,8.48,0,0,1-8.39,8.51A8.4,8.4,0,0,1,78.66,10.29Z"/><path class="cls-2" d="M268.2,86.67A5.84,5.84,0,1,1,274,80.83,5.85,5.85,0,0,1,268.2,86.67Zm0-10.82a5,5,0,1,0,5,5A5,5,0,0,0,268.2,75.85Z"/><path class="cls-2" d="M268.24,81.57h-.72v1.94H266.2V78h2.16a2.38,2.38,0,0,1,1.53.43,1.48,1.48,0,0,1,.56,1.23,1.74,1.74,0,0,1-.24,1,1.57,1.57,0,0,1-.72.61l1.15,2.23v.05h-1.43Zm-.72-1h.84a.76.76,0,1,0,0-1.51h-.84Z"/></g></g></svg>